/* XPM */
static char *_651179074134[] = {
/* columns rows colors chars-per-pixel */
"32 32 6 1 ",
"  c #623D00",
". c #BC7400",
"X c #AC6B00",
"o c black",
"O c #808080",
"+ c #D3D5D6",
/* pixels */
"  .... ... ....... ....  .......",
"    ....... . ..    . ...... ...",
"   ........ .. . .. . .  .  ... ",
" . . ......... .XXXXXXXX. .. ...",
" . .  .XXXXXXXXX  .... .XXX. ...",
" .... .. o .   oooo XXXXo...... ",
"  .....   o X oooooo  .o......  ",
"... .   XXXo ooOOOOoo o.  .   . ",
"  .. .XXX  oXoOooooOo.o .     . ",
"  .  .   XXXooooOOoooo...   ..  ",
"  ..  XXXXXXoooooooooo. ..... ..",
".   .XXooooo.ooOOOOoX ooooo ... ",
"  XXX...   ooo OoooXooo  .  XXX.",
"XX ..   XXX  ooooooooXX.XXXX..  ",
"  . XXXX   XoooOOOOoooXX...    .",
"  . ..  XooooOOoooOOOoooo   ....",
"  ..  XooXXXoOooooooOo  .oo.....",
"    XXXoXXX.oOoooooooo. . o.  ..",
"  XXXXXX   oooooooooooo.........",
"    .   ..o. ..oooo....o..  ....",
".. .... .o  . ..ooXXXXXXoXX...  ",
". ..... XoXXXXXoooo.. ..o.XXXX..",
"..  .. .oo . ..+oo+.XXXXoo... . ",
"........o    XXXooXX ..  o .... ",
"....  . oXXXX........ .. o.     ",
". ...... .   ..  ... . . . . .  ",
" ..... .XXXXXXXX.    ... XXX .  ",
"  .....   ..  ..XXXXXXXXX . . . ",
" ...   .... .....XXXX   . ..    ",
".   . .... . .XXX   ......    ..",
"  ...  ..  .X   XXXXXXXXXXXX. . ",
"    ........ . .  .  ....   .  ."
};
