/* XPM */
static char *_651179088781[] = {
/* columns rows colors chars-per-pixel */
"32 32 5 1 ",
"  c #623D00",
". c #BC7400",
"X c #AC6B00",
"o c #3F2700",
"O c black",
/* pixels */
"  .... ...XXXXXXXXXXXX.  .......",
"    ....XX            XX.... ...",
"   ....X                X.  X.. ",
" . . XX                  XX. ...",
" . .X                      X ...",
" ..X              oo        X.. ",
"  .X      ooooooooooooooo   X.  ",
"..X    ooooooooooooooooooo   X. ",
" X    oooooooooooooooooooooo  X ",
" X    ooooooooooooooooooooooo X ",
"X   oooooooooooooooooooooooooo X",
"X  ooooooooooooooooooooooooooo X",
"X oooooooooooooooooooooooooooo X",
"XooooooooooooOOOOooooooooooooooX",
"ooooooOOOOOOOOOOOOOOOOOOoooooooo",
"oooooOOOOOOOOOOOOOOOOOOOOooooooo",
"ooooOOOOOOOOOOOOOOOOOOOOOOOooooo",
"XooOOOOOOOOOOOOOOOOOOOOOOOOOoooo",
" OOOOOOOOOOOOOOOOOOOOOOOOOOOOooo",
" OOOOOOOOOOOOOOOOOOOOOOOOOOOOOO ",
" OOOOOOOOOOOOOOOOOOOOOOOOOOOOOO ",
" OOOOOOOOOOOOOOOOOOOOOOOOOOOOOO ",
" OOOOOOOOOOOOOOOOOOOOOOOOOOOOOO ",
" OOOOOOOOOOOOOOOOOOOOOOOOOOOOOO ",
" OOOOOOOOOOOOOOOOOOOOOOOOOOOOOO ",
". OOOOOOOOOOOOOOOOOOOOOOOOOOOO  ",
"  OOOOOOOOOOOOOOOOOOOOOOOOOOOO  ",
"   OOOOOOOOOOOOOOOOOOOOOOOOOO . ",
" ..  OOOOOOOOOOOOOOOOOOOOOO     ",
".   .  OOOOOOOOOOOOOOOOOO     ..",
"  ...    OOOOOOOOOOOOOO  XXX. . ",
"    .....              ..   .  ."
};
