/* XPM */
static char *_651179095697[] = {
/* columns rows colors chars-per-pixel */
"32 32 3 1 ",
"  c #623D00",
". c #BC7400",
"X c #AC6B00",
/* pixels */
"  .... ... ....... ....  .......",
"    ....... . ..    . ...... ...",
"   ........ .. . .. . .  .  X.. ",
" . . ......... .XXXXXXXX. .. ...",
" . .  .XXXXXXXXX  .... .XXX. ...",
" .... .. . .    XX  XXXX....... ",
"  .....     X  XXXXX  ........  ",
"... .   XXX  XXXX.... ..  .   . ",
"  .. .XXX  XXXX. ...... .     . ",
"  .  .   XXXXXXXXXXX.....   ..  ",
"  ..  XXXXXXX ..    ... ..... ..",
".   .XXX.......  XX.X  XXXX ... ",
"  XXX...   ..  XXXXXXXX  .  XXX.",
"XX ..   XXX  XX XXXXXXX.XXXX..  ",
"  . XXXX   XX XXXXXXXXXX...    .",
"  . ..  XXXXXXXXXXXX..      ....",
"  ..  XXXXXXXXX..       ........",
"    XXXXXXX..    ...... . ..  ..",
"  XXXXXX     XXXXXXX............",
"    .   .... ... ...... ..  ....",
".. .... ..  . .. .XXXXXXXXX...  ",
". ..... XXXXXXXXXX... ....XXXX..",
"..  .. .   . ..  . .XXXXXX... . ",
".........    XXXXXXX ..  . .... ",
"....  . .XXXX........ ..  .     ",
". ...... .   ..  ... . . . . .  ",
" ..... .XXXXXXXX.    ... XXX .  ",
"  .....   ..  ..XXXXXXXXX . . . ",
" ...   .... .....XXXX   . ..    ",
".   . .... . .XXX   ......    ..",
"  ...  ..  .X   XXXXXXXXXXXX. . ",
"    ........ . .  .  ....   .  ."
};
