/* XPM */
static char *_651179103118[] = {
/* columns rows colors chars-per-pixel */
"32 32 4 1 ",
"  c black",
". c #808080",
"X c #5F3000",
"o c #B15900",
/* pixels */
"   .XXXXXXXXXXXXXXXXXXXXXXXX.   ",
"    .XXXXXXXXXXXXXXXXXXXXXX.    ",
"     .oooooooooooooooooooo.     ",
".     .oooooooooooooooooo.     .",
"X.     .oooooooooooooooo.     .X",
"XX.     .oooooooooooooo.     .XX",
"XXo.     .oooooooooooo.     .oXX",
"XXoo.     .oooooooooo.     .ooXX",
"XXooo.     .oooooooo.     .oooXX",
"XXoooo.     .oooooo.     .ooooXX",
"XXooooo.     .oooo.     .oooooXX",
"XXoooooo.     .oo.     .ooooooXX",
"XXooooooo.     ..     .oooooooXX",
"XXoooooooo.          .ooooooooXX",
"XXooooooooo.  ....  .oooooooooXX",
"XXoooooooooo. .oo. .ooooooooooXX",
"XXoooooooooo. .oo. .ooooooooooXX",
"XXooooooooo.  ....  .oooooooooXX",
"XXoooooooo.          .ooooooooXX",
"XXooooooo.     ..     .oooooooXX",
"XXoooooo.     .oo.     .ooooooXX",
"XXooooo.     .oooo.     .oooooXX",
"XXoooo.     .oooooo.     .ooooXX",
"XXooo.     .oooooooo.     .oooXX",
"XXoo.     .oooooooooo.     .ooXX",
"XXo.     .oooooooooooo.     .oXX",
"XX.     .oooooooooooooo.     .XX",
"X.     .oooooooooooooooo.     .X",
".     .oooooooooooooooooo.     .",
"     .XXXXXXXXXXXXXXXXXXXX.     ",
"    .XXXXXXXXXXXXXXXXXXXXXX.    ",
"   .XXXXXXXXXXXXXXXXXXXXXXXX.   "
};
